<?xml version="1.0" encoding="UTF-8"?>
<svg width="1000" height="1000" viewBox="0 0 1000 1000"
     xmlns="http://www.w3.org/2000/svg">
<rect width="1000" height="1000" fill="#f1f3f6"/>
<g>
  <polygon points="915.09,541.31 914.57,547.45 913.01,553.52 910.42,559.48 906.84,565.27 902.29,570.82 896.82,576.09 890.48,581.02 576.67,762.63 568.78,766.76 560.24,770.42 551.11,773.57 541.49,776.2 531.47,778.27 521.15,779.76 510.63,780.66 500.0,780.96 489.37,780.66 478.85,779.76 468.53,778.27 458.51,776.2 448.89,773.57 439.76,770.42 431.22,766.76 116.67,585.58 109.52,581.02 103.18,576.09 97.71,570.82 93.16,565.27 89.58,559.48 86.99,553.52 85.43,547.45 84.91,541.31 84.91,582.63 85.43,588.76 86.99,594.84 89.58,600.8 93.16,606.58 97.71,612.13 103.18,617.4 109.52,622.34 116.67,626.89 431.22,808.07 439.76,811.73 448.89,814.89 458.51,817.51 468.53,819.58 478.85,821.07 489.37,821.98 500.0,822.28 510.63,821.98 521.15,821.07 531.47,819.58 541.49,817.51 551.11,814.89 560.24,811.73 568.78,808.07 576.67,803.94 890.48,622.34 896.82,617.4 902.29,612.13 906.84,606.58 910.42,600.8 913.01,594.84 914.57,588.76 915.09,582.63" fill="#c4c9d4"/>
  <polygon points="883.33,497.05 890.48,501.6 896.82,506.53 902.29,511.8 906.84,517.36 910.42,523.14 913.01,529.1 914.57,535.18 915.09,541.31 914.57,547.45 913.01,553.52 910.42,559.48 906.84,565.27 902.29,570.82 896.82,576.09 890.48,581.02 576.67,762.63 568.78,766.76 560.24,770.42 551.11,773.57 541.49,776.2 531.47,778.27 521.15,779.76 510.63,780.66 500.0,780.96 489.37,780.66 478.85,779.76 468.53,778.27 458.51,776.2 448.89,773.57 439.76,770.42 431.22,766.76 116.67,585.58 109.52,581.02 103.18,576.09 97.71,570.82 93.16,565.27 89.58,559.48 86.99,553.52 85.43,547.45 84.91,541.31 85.43,535.18 86.99,529.1 89.58,523.14 93.16,517.36 97.71,511.8 103.18,506.53 109.52,501.6 423.33,320.0 431.22,315.87 439.76,312.21 448.89,309.05 458.51,306.43 468.53,304.36 478.85,302.86 489.37,301.96 500.0,301.66 510.63,301.96 521.15,302.86 531.47,304.36 541.49,306.43 551.11,309.05 560.24,312.21 568.78,315.87" fill="#ffffff"/>
</g>
<g>
  <polygon points="689.47,452.73 689.3,454.77 688.78,456.8 687.92,458.78 686.72,460.71 685.21,462.56 683.38,464.32 681.27,465.96 525.56,556.01 522.93,557.38 520.08,558.6 517.04,559.66 513.83,560.53 510.49,561.22 507.05,561.72 503.54,562.02 500.0,562.12 496.46,562.02 492.95,561.72 489.51,561.22 486.17,560.53 482.96,559.66 479.92,558.6 477.07,557.38 321.11,467.48 318.73,465.96 316.62,464.32 314.79,462.56 313.28,460.71 312.08,458.78 311.22,456.8 310.7,454.77 310.53,452.73 310.53,452.73 310.7,454.77 311.22,456.8 312.08,458.78 313.28,460.71 314.79,462.56 316.62,464.32 318.73,465.96 321.11,467.48 477.07,557.38 479.92,558.6 482.96,559.66 486.17,560.53 489.51,561.22 492.95,561.72 496.46,562.02 500.0,562.12 503.54,562.02 507.05,561.72 510.49,561.22 513.83,560.53 517.04,559.66 520.08,558.6 522.93,557.38 525.56,556.01 681.27,465.96 683.38,464.32 685.21,462.56 686.72,460.71 687.92,458.78 688.78,456.8 689.3,454.77 689.47,452.73" fill="#d1d5db"/>
  <polygon points="678.89,437.97 681.27,439.49 683.38,441.13 685.21,442.89 686.72,444.74 687.92,446.67 688.78,448.66 689.3,450.68 689.47,452.73 689.3,454.77 688.78,456.8 687.92,458.78 686.72,460.71 685.21,462.56 683.38,464.32 681.27,465.96 525.56,556.01 522.93,557.38 520.08,558.6 517.04,559.66 513.83,560.53 510.49,561.22 507.05,561.72 503.54,562.02 500.0,562.12 496.46,562.02 492.95,561.72 489.51,561.22 486.17,560.53 482.96,559.66 479.92,558.6 477.07,557.38 321.11,467.48 318.73,465.96 316.62,464.32 314.79,462.56 313.28,460.71 312.08,458.78 311.22,456.8 310.7,454.77 310.53,452.73 310.7,450.68 311.22,448.66 312.08,446.67 313.28,444.74 314.79,442.89 316.62,441.13 318.73,439.49 474.44,349.45 477.07,348.07 479.92,346.85 482.96,345.8 486.17,344.92 489.51,344.23 492.95,343.73 496.46,343.43 500.0,343.33 503.54,343.43 507.05,343.73 510.49,344.23 513.83,344.92 517.04,345.8 520.08,346.85 522.93,348.07" fill="#d1d5db"/>
</g>
<g>
  <polygon points="842.81,500.0 842.63,502.05 842.11,504.07 841.25,506.06 840.06,507.99 838.54,509.84 836.72,511.59 834.6,513.24 678.89,603.28 676.26,604.66 673.41,605.88 670.37,606.93 667.16,607.8 663.82,608.49 660.38,608.99 656.88,609.29 653.33,609.39 649.79,609.29 646.28,608.99 642.84,608.49 639.5,607.8 636.3,606.93 633.25,605.88 630.41,604.66 576.67,573.77 574.28,572.26 572.17,570.61 570.35,568.85 568.83,567.0 567.64,565.08 566.78,563.09 566.26,561.06 566.08,559.02 566.08,600.33 566.26,602.38 566.78,604.4 567.64,606.39 568.83,608.32 570.35,610.17 572.17,611.92 574.28,613.57 576.67,615.09 630.41,645.97 633.25,647.19 636.3,648.24 639.5,649.12 642.84,649.81 646.28,650.3 649.79,650.61 653.33,650.71 656.88,650.61 660.38,650.3 663.82,649.81 667.16,649.12 670.37,648.24 673.41,647.19 676.26,645.97 678.89,644.59 834.6,554.55 836.72,552.91 838.54,551.15 840.06,549.3 841.25,547.37 842.11,545.38 842.63,543.36 842.81,541.31" fill="#c2702e"/>
  <polygon points="832.22,485.25 834.6,486.76 836.72,488.41 838.54,490.16 840.06,492.01 841.25,493.94 842.11,495.93 842.63,497.95 842.81,500.0 842.63,502.05 842.11,504.07 841.25,506.06 840.06,507.99 838.54,509.84 836.72,511.59 834.6,513.24 678.89,603.28 676.26,604.66 673.41,605.88 670.37,606.93 667.16,607.8 663.82,608.49 660.38,608.99 656.88,609.29 653.33,609.39 649.79,609.29 646.28,608.99 642.84,608.49 639.5,607.8 636.3,606.93 633.25,605.88 630.41,604.66 576.67,573.77 574.28,572.26 572.17,570.61 570.35,568.85 568.83,567.0 567.64,565.08 566.78,563.09 566.26,561.06 566.08,559.02 566.26,556.97 566.78,554.95 567.64,552.96 568.83,551.03 570.35,549.18 572.17,547.43 574.28,545.78 730.0,455.74 732.63,454.36 735.48,453.14 738.52,452.09 741.72,451.21 745.06,450.52 748.5,450.03 752.01,449.73 755.56,449.62 759.1,449.73 762.61,450.03 766.05,450.52 769.39,451.21 772.59,452.09 775.63,453.14 778.48,454.36" fill="#fb923c"/>
</g>
<g>
  <polygon points="433.92,559.02 433.74,561.06 433.22,563.09 432.36,565.08 431.17,567.0 429.65,568.85 427.83,570.61 425.72,572.26 372.22,603.28 369.59,604.66 366.75,605.88 363.7,606.93 360.5,607.8 357.16,608.49 353.72,608.99 350.21,609.29 346.67,609.39 343.12,609.29 339.62,608.99 336.18,608.49 332.84,607.8 329.63,606.93 326.59,605.88 323.74,604.66 167.78,514.75 165.4,513.24 163.28,511.59 161.46,509.84 159.94,507.99 158.75,506.06 157.89,504.07 157.37,502.05 157.19,500.0 157.19,541.31 157.37,543.36 157.89,545.38 158.75,547.37 159.94,549.3 161.46,551.15 163.28,552.91 165.4,554.55 167.78,556.07 323.74,645.97 326.59,647.19 329.63,648.24 332.84,649.12 336.18,649.81 339.62,650.3 343.12,650.61 346.67,650.71 350.21,650.61 353.72,650.3 357.16,649.81 360.5,649.12 363.7,648.24 366.75,647.19 369.59,645.97 372.22,644.59 425.72,613.57 427.83,611.92 429.65,610.17 431.17,608.32 432.36,606.39 433.22,604.4 433.74,602.38 433.92,600.33" fill="#27a077"/>
  <polygon points="423.33,544.26 425.72,545.78 427.83,547.43 429.65,549.18 431.17,551.03 432.36,552.96 433.22,554.95 433.74,556.97 433.92,559.02 433.74,561.06 433.22,563.09 432.36,565.08 431.17,567.0 429.65,568.85 427.83,570.61 425.72,572.26 372.22,603.28 369.59,604.66 366.75,605.88 363.7,606.93 360.5,607.8 357.16,608.49 353.72,608.99 350.21,609.29 346.67,609.39 343.12,609.29 339.62,608.99 336.18,608.49 332.84,607.8 329.63,606.93 326.59,605.88 323.74,604.66 167.78,514.75 165.4,513.24 163.28,511.59 161.46,509.84 159.94,507.99 158.75,506.06 157.89,504.07 157.37,502.05 157.19,500.0 157.37,497.95 157.89,495.93 158.75,493.94 159.94,492.01 161.46,490.16 163.28,488.41 165.4,486.76 218.89,455.74 221.52,454.36 224.37,453.14 227.41,452.09 230.61,451.21 233.95,450.52 237.39,450.03 240.9,449.73 244.44,449.62 247.99,449.73 251.5,450.03 254.94,450.52 258.28,451.21 261.48,452.09 264.52,453.14 267.37,454.36" fill="#34d399"/>
</g>
<g>
  <polygon points="587.25,647.55 587.08,649.59 586.56,651.62 585.7,653.6 584.5,655.53 582.98,657.38 581.16,659.14 579.05,660.78 525.56,691.81 522.93,693.18 520.08,694.4 517.04,695.46 513.83,696.33 510.49,697.02 507.05,697.52 503.54,697.82 500.0,697.92 496.46,697.82 492.95,697.52 489.51,697.02 486.17,696.33 482.96,695.46 479.92,694.4 477.07,693.18 423.33,662.3 420.95,660.78 418.84,659.14 417.02,657.38 415.5,655.53 414.3,653.6 413.44,651.62 412.92,649.59 412.75,647.55 412.75,688.86 412.92,690.9 413.44,692.93 414.3,694.91 415.5,696.84 417.02,698.69 418.84,700.45 420.95,702.09 423.33,703.61 477.07,734.5 479.92,735.72 482.96,736.77 486.17,737.64 489.51,738.33 492.95,738.83 496.46,739.13 500.0,739.23 503.54,739.13 507.05,738.83 510.49,738.33 513.83,737.64 517.04,736.77 520.08,735.72 522.93,734.5 525.56,733.12 579.05,702.09 581.16,700.45 582.98,698.69 584.5,696.84 585.7,694.91 586.56,692.93 587.08,690.9 587.25,688.86" fill="#c2941c"/>
  <polygon points="576.67,632.79 579.05,634.31 581.16,635.95 582.98,637.71 584.5,639.56 585.7,641.49 586.56,643.47 587.08,645.5 587.25,647.55 587.08,649.59 586.56,651.62 585.7,653.6 584.5,655.53 582.98,657.38 581.16,659.14 579.05,660.78 525.56,691.81 522.93,693.18 520.08,694.4 517.04,695.46 513.83,696.33 510.49,697.02 507.05,697.52 503.54,697.82 500.0,697.92 496.46,697.82 492.95,697.52 489.51,697.02 486.17,696.33 482.96,695.46 479.92,694.4 477.07,693.18 423.33,662.3 420.95,660.78 418.84,659.14 417.02,657.38 415.5,655.53 414.3,653.6 413.44,651.62 412.92,649.59 412.75,647.55 412.92,645.5 413.44,643.47 414.3,641.49 415.5,639.56 417.02,637.71 418.84,635.95 420.95,634.31 474.44,603.28 477.07,601.91 479.92,600.69 482.96,599.63 486.17,598.76 489.51,598.07 492.95,597.57 496.46,597.27 500.0,597.17 503.54,597.27 507.05,597.57 510.49,598.07 513.83,598.76 517.04,599.63 520.08,600.69 522.93,601.91" fill="#fbbf24"/>
</g>
<g>
  <polygon points="689.47,328.85 689.3,330.89 688.78,332.92 687.92,334.9 686.72,336.83 685.21,338.68 683.38,340.44 681.27,342.08 525.56,432.13 522.93,433.5 520.08,434.72 517.04,435.78 513.83,436.65 510.49,437.34 507.05,437.84 503.54,438.14 500.0,438.24 496.46,438.14 492.95,437.84 489.51,437.34 486.17,436.65 482.96,435.78 479.92,434.72 477.07,433.5 321.11,343.6 318.73,342.08 316.62,340.44 314.79,338.68 313.28,336.83 312.08,334.9 311.22,332.92 310.7,330.89 310.53,328.85 310.53,370.16 310.7,372.21 311.22,374.23 312.08,376.22 313.28,378.15 314.79,380.0 316.62,381.75 318.73,383.4 321.11,384.91 477.07,474.82 479.92,476.04 482.96,477.09 486.17,477.97 489.51,478.65 492.95,479.15 496.46,479.45 500.0,479.55 503.54,479.45 507.05,479.15 510.49,478.65 513.83,477.97 517.04,477.09 520.08,476.04 522.93,474.82 525.56,473.44 681.27,383.4 683.38,381.75 685.21,380.0 686.72,378.15 687.92,376.22 688.78,374.23 689.3,372.21 689.47,370.16" fill="#3b53b8"/>
  <polygon points="678.89,314.09 681.27,315.61 683.38,317.26 685.21,319.01 686.72,320.86 687.92,322.79 688.78,324.78 689.3,326.8 689.47,328.85 689.3,330.89 688.78,332.92 687.92,334.9 686.72,336.83 685.21,338.68 683.38,340.44 681.27,342.08 525.56,432.13 522.93,433.5 520.08,434.72 517.04,435.78 513.83,436.65 510.49,437.34 507.05,437.84 503.54,438.14 500.0,438.24 496.46,438.14 492.95,437.84 489.51,437.34 486.17,436.65 482.96,435.78 479.92,434.72 477.07,433.5 321.11,343.6 318.73,342.08 316.62,340.44 314.79,338.68 313.28,336.83 312.08,334.9 311.22,332.92 310.7,330.89 310.53,328.85 310.7,326.8 311.22,324.78 312.08,322.79 313.28,320.86 314.79,319.01 316.62,317.26 318.73,315.61 474.44,225.57 477.07,224.19 479.92,222.97 482.96,221.92 486.17,221.04 489.51,220.35 492.95,219.86 496.46,219.56 500.0,219.45 503.54,219.56 507.05,219.86 510.49,220.35 513.83,221.04 517.04,221.92 520.08,222.97 522.93,224.19" fill="#4f6ef7"/>
</g>
</svg>